<svg width="24" height="25" viewBox="0 0 24 25" fill="none" xmlns="http://www.w3.org/2000/svg">
<path d="M17.6667 19.5833C17.6667 20.1356 18.1144 20.5833 18.6667 20.5833C19.219 20.5833 19.6667 20.1356 19.6667 19.5833H17.6667ZM15.3333 14.5833V13.5833V14.5833ZM8.66667 14.5833V13.5833V14.5833ZM5.33333 17.9167H4.33333H5.33333ZM4.33333 19.5833C4.33333 20.1356 4.78105 20.5833 5.33333 20.5833C5.88562 20.5833 6.33333 20.1356 6.33333 19.5833H4.33333ZM18.6667 19.5833H19.6667V17.9167H18.6667H17.6667V19.5833H18.6667ZM18.6667 17.9167H19.6667C19.6667 16.7674 19.2101 15.6652 18.3975 14.8525L17.6904 15.5596L16.9832 16.2668C17.4208 16.7043 17.6667 17.2978 17.6667 17.9167H18.6667ZM17.6904 15.5596L18.3975 14.8525C17.5848 14.0399 16.4826 13.5833 15.3333 13.5833V14.5833V15.5833C15.9522 15.5833 16.5457 15.8292 16.9832 16.2668L17.6904 15.5596ZM15.3333 14.5833V13.5833H8.66667V14.5833V15.5833H15.3333V14.5833ZM8.66667 14.5833V13.5833C7.51739 13.5833 6.41519 14.0399 5.60254 14.8525L6.30964 15.5596L7.01675 16.2668C7.45434 15.8292 8.04783 15.5833 8.66667 15.5833V14.5833ZM6.30964 15.5596L5.60254 14.8525C4.78988 15.6652 4.33333 16.7674 4.33333 17.9167H5.33333H6.33333C6.33333 17.2978 6.57917 16.7043 7.01675 16.2668L6.30964 15.5596ZM5.33333 17.9167H4.33333V19.5833H5.33333H6.33333V17.9167H5.33333ZM15.3333 8.75H14.3333C14.3333 10.0387 13.2887 11.0833 12 11.0833V12.0833V13.0833C14.3932 13.0833 16.3333 11.1432 16.3333 8.75H15.3333ZM12 12.0833V11.0833C10.7113 11.0833 9.66667 10.0387 9.66667 8.75H8.66667H7.66667C7.66667 11.1432 9.60677 13.0833 12 13.0833V12.0833ZM8.66667 8.75H9.66667C9.66667 7.46134 10.7113 6.41667 12 6.41667V5.41667V4.41667C9.60677 4.41667 7.66667 6.35677 7.66667 8.75H8.66667ZM12 5.41667V6.41667C13.2887 6.41667 14.3333 7.46134 14.3333 8.75H15.3333H16.3333C16.3333 6.35677 14.3932 4.41667 12 4.41667V5.41667ZM22 12.5H21C21 17.4706 16.9706 21.5 12 21.5V22.5V23.5C18.0751 23.5 23 18.5751 23 12.5H22ZM12 22.5V21.5C7.02944 21.5 3 17.4706 3 12.5H2H1C1 18.5751 5.92487 23.5 12 23.5V22.5ZM2 12.5H3C3 7.52944 7.02944 3.5 12 3.5V2.5V1.5C5.92487 1.5 1 6.42487 1 12.5H2ZM12 2.5V3.5C16.9706 3.5 21 7.52944 21 12.5H22H23C23 6.42487 18.0751 1.5 12 1.5V2.5Z" fill="#1A1A1A"/>
</svg>
